<?xml version="1.0" encoding="UTF-8" standalone="no"?>
<!DOCTYPE svg PUBLIC "-//W3C//DTD SVG 1.1//EN" "http://www.w3.org/Graphics/SVG/1.1/DTD/svg11.dtd">
<svg xmlns="http://www.w3.org/2000/svg" version="1.1" viewBox="0 0 444 445">
<g stroke-width="2.00" fill="none" stroke-linecap="butt">
<path stroke="#baa1d1" vector-effect="non-scaling-stroke" d="
  M 255.25 210.54
  Q 248.06 206.02 239.50 206.01
  Q 218.38 206.00 197.25 206.00
  Q 188.31 206.00 182.06 210.56
  Q 172.36 217.66 171.08 228.61
  Q 169.86 239.11 175.73 247.43
  Q 180.73 254.50 189.68 257.06
  Q 192.90 257.98 198.41 258.21
  Q 205.40 258.49 207.25 258.25
  Q 213.05 257.49 212.84 262.76
  Q 212.76 264.66 212.76 264.74
  Q 212.91 280.55 212.54 296.36
  Q 212.49 298.50 212.08 299.58
  Q 211.40 301.40 209.94 302.19
  Q 200.75 307.13 188.75 307.00
  Q 172.61 306.83 160.29 302.88
  Q 140.06 296.39 128.95 278.35
  Q 122.30 267.55 119.50 255.75
  Q 115.84 240.33 115.86 223.75
  Q 115.89 205.01 121.94 187.31
  Q 127.02 172.44 137.31 161.56
  Q 155.43 142.42 182.50 142.48
  Q 192.10 142.50 201.20 145.23
  Q 203.19 145.83 209.03 148.26
  Q 213.58 150.15 217.00 151.00
  Q 224.40 152.84 232.03 151.56
  Q 239.71 150.27 245.39 145.63
  Q 256.20 136.81 254.53 122.07
  Q 253.80 115.70 250.75 111.57
  Q 247.51 107.20 241.94 104.06
  Q 212.73 87.66 181.00 87.69
  Q 132.61 87.76 96.35 117.24
  Q 88.33 123.76 82.06 131.20
  Q 71.19 144.08 64.09 159.58
  Q 53.78 182.08 51.28 206.75
  Q 49.64 222.96 50.75 240.25
  Q 51.92 258.51 56.83 275.34
  Q 70.18 321.18 110.16 344.32
  Q 118.73 349.28 128.25 352.80
  Q 148.53 360.30 171.50 361.75
  Q 210.43 364.20 244.17 347.65
  Q 255.12 342.28 260.94 332.69
  Q 269.77 318.13 269.77 300.00
  Q 269.75 272.27 269.75 244.54
  Q 269.75 231.45 268.19 226.63
  Q 264.97 216.63 255.25 210.54"
/>
<path stroke="#baa1d1" vector-effect="non-scaling-stroke" d="
  M 302.54 109.56
  Q 297.53 119.22 300.69 130.31
  Q 304.51 143.77 317.44 149.15
  Q 322.35 151.20 330.00 151.75
  Q 343.85 152.74 354.06 145.50
  Q 364.70 137.95 365.64 124.82
  Q 366.50 112.88 359.94 104.56
  Q 353.45 96.34 343.59 93.84
  Q 334.32 91.49 324.86 93.24
  Q 317.62 94.58 311.67 98.97
  Q 305.76 103.33 302.54 109.56"
/>
<path stroke="#baa1d1" vector-effect="non-scaling-stroke" d="
  M 312.83 354.18
  Q 318.23 359.25 325.51 360.70
  Q 344.12 364.40 355.06 351.58
  Q 358.94 347.03 360.39 341.54
  Q 361.75 336.38 361.75 330.00
  Q 361.75 267.87 361.75 205.75
  Q 361.75 196.08 356.81 188.94
  Q 349.50 178.36 336.01 177.19
  Q 319.39 175.74 309.97 187.70
  Q 306.93 191.54 305.50 195.88
  Q 304.02 200.38 304.02 205.25
  Q 304.00 269.50 304.06 333.75
  Q 304.07 345.96 312.83 354.18"
/>
</g>
<path fill="#7443a3" d="
  M 0.00 0.00
  L 444.00 0.00
  L 444.00 445.00
  L 0.00 445.00
  L 0.00 0.00
  Z
  M 255.25 210.54
  Q 248.06 206.02 239.50 206.01
  Q 218.38 206.00 197.25 206.00
  Q 188.31 206.00 182.06 210.56
  Q 172.36 217.66 171.08 228.61
  Q 169.86 239.11 175.73 247.43
  Q 180.73 254.50 189.68 257.06
  Q 192.90 257.98 198.41 258.21
  Q 205.40 258.49 207.25 258.25
  Q 213.05 257.49 212.84 262.76
  Q 212.76 264.66 212.76 264.74
  Q 212.91 280.55 212.54 296.36
  Q 212.49 298.50 212.08 299.58
  Q 211.40 301.40 209.94 302.19
  Q 200.75 307.13 188.75 307.00
  Q 172.61 306.83 160.29 302.88
  Q 140.06 296.39 128.95 278.35
  Q 122.30 267.55 119.50 255.75
  Q 115.84 240.33 115.86 223.75
  Q 115.89 205.01 121.94 187.31
  Q 127.02 172.44 137.31 161.56
  Q 155.43 142.42 182.50 142.48
  Q 192.10 142.50 201.20 145.23
  Q 203.19 145.83 209.03 148.26
  Q 213.58 150.15 217.00 151.00
  Q 224.40 152.84 232.03 151.56
  Q 239.71 150.27 245.39 145.63
  Q 256.20 136.81 254.53 122.07
  Q 253.80 115.70 250.75 111.57
  Q 247.51 107.20 241.94 104.06
  Q 212.73 87.66 181.00 87.69
  Q 132.61 87.76 96.35 117.24
  Q 88.33 123.76 82.06 131.20
  Q 71.19 144.08 64.09 159.58
  Q 53.78 182.08 51.28 206.75
  Q 49.64 222.96 50.75 240.25
  Q 51.92 258.51 56.83 275.34
  Q 70.18 321.18 110.16 344.32
  Q 118.73 349.28 128.25 352.80
  Q 148.53 360.30 171.50 361.75
  Q 210.43 364.20 244.17 347.65
  Q 255.12 342.28 260.94 332.69
  Q 269.77 318.13 269.77 300.00
  Q 269.75 272.27 269.75 244.54
  Q 269.75 231.45 268.19 226.63
  Q 264.97 216.63 255.25 210.54
  Z
  M 302.54 109.56
  Q 297.53 119.22 300.69 130.31
  Q 304.51 143.77 317.44 149.15
  Q 322.35 151.20 330.00 151.75
  Q 343.85 152.74 354.06 145.50
  Q 364.70 137.95 365.64 124.82
  Q 366.50 112.88 359.94 104.56
  Q 353.45 96.34 343.59 93.84
  Q 334.32 91.49 324.86 93.24
  Q 317.62 94.58 311.67 98.97
  Q 305.76 103.33 302.54 109.56
  Z
  M 312.83 354.18
  Q 318.23 359.25 325.51 360.70
  Q 344.12 364.40 355.06 351.58
  Q 358.94 347.03 360.39 341.54
  Q 361.75 336.38 361.75 330.00
  Q 361.75 267.87 361.75 205.75
  Q 361.75 196.08 356.81 188.94
  Q 349.50 178.36 336.01 177.19
  Q 319.39 175.74 309.97 187.70
  Q 306.93 191.54 305.50 195.88
  Q 304.02 200.38 304.02 205.25
  Q 304.00 269.50 304.06 333.75
  Q 304.07 345.96 312.83 354.18
  Z"
/>
<path fill="#ffffff" d="
  M 255.25 210.54
  Q 264.97 216.63 268.19 226.63
  Q 269.75 231.45 269.75 244.54
  Q 269.75 272.27 269.77 300.00
  Q 269.77 318.13 260.94 332.69
  Q 255.12 342.28 244.17 347.65
  Q 210.43 364.20 171.50 361.75
  Q 148.53 360.30 128.25 352.80
  Q 118.73 349.28 110.16 344.32
  Q 70.18 321.18 56.83 275.34
  Q 51.92 258.51 50.75 240.25
  Q 49.64 222.96 51.28 206.75
  Q 53.78 182.08 64.09 159.58
  Q 71.19 144.08 82.06 131.20
  Q 88.33 123.76 96.35 117.24
  Q 132.61 87.76 181.00 87.69
  Q 212.73 87.66 241.94 104.06
  Q 247.51 107.20 250.75 111.57
  Q 253.80 115.70 254.53 122.07
  Q 256.20 136.81 245.39 145.63
  Q 239.71 150.27 232.03 151.56
  Q 224.40 152.84 217.00 151.00
  Q 213.58 150.15 209.03 148.26
  Q 203.19 145.83 201.20 145.23
  Q 192.10 142.50 182.50 142.48
  Q 155.43 142.42 137.31 161.56
  Q 127.02 172.44 121.94 187.31
  Q 115.89 205.01 115.86 223.75
  Q 115.84 240.33 119.50 255.75
  Q 122.30 267.55 128.95 278.35
  Q 140.06 296.39 160.29 302.88
  Q 172.61 306.83 188.75 307.00
  Q 200.75 307.13 209.94 302.19
  Q 211.40 301.40 212.08 299.58
  Q 212.49 298.50 212.54 296.36
  Q 212.91 280.55 212.76 264.74
  Q 212.76 264.66 212.84 262.76
  Q 213.05 257.49 207.25 258.25
  Q 205.40 258.49 198.41 258.21
  Q 192.90 257.98 189.68 257.06
  Q 180.73 254.50 175.73 247.43
  Q 169.86 239.11 171.08 228.61
  Q 172.36 217.66 182.06 210.56
  Q 188.31 206.00 197.25 206.00
  Q 218.38 206.00 239.50 206.01
  Q 248.06 206.02 255.25 210.54
  Z"
/>
<path fill="#ffffff" d="
  M 311.67 98.97
  Q 317.62 94.58 324.86 93.24
  Q 334.32 91.49 343.59 93.84
  Q 353.45 96.34 359.94 104.56
  Q 366.50 112.88 365.64 124.82
  Q 364.70 137.95 354.06 145.50
  Q 343.85 152.74 330.00 151.75
  Q 322.35 151.20 317.44 149.15
  Q 304.51 143.77 300.69 130.31
  Q 297.53 119.22 302.54 109.56
  Q 305.76 103.33 311.67 98.97
  Z"
/>
<path fill="#ffffff" d="
  M 312.83 354.18
  Q 304.07 345.96 304.06 333.75
  Q 304.00 269.50 304.02 205.25
  Q 304.02 200.38 305.50 195.88
  Q 306.93 191.54 309.97 187.70
  Q 319.39 175.74 336.01 177.19
  Q 349.50 178.36 356.81 188.94
  Q 361.75 196.08 361.75 205.75
  Q 361.75 267.87 361.75 330.00
  Q 361.75 336.38 360.39 341.54
  Q 358.94 347.03 355.06 351.58
  Q 344.12 364.40 325.51 360.70
  Q 318.23 359.25 312.83 354.18
  Z"
/>
</svg>
